REM MD5 f8a29148069751c15fa4b96527a55d2d
FILE "Break Point (Europe) (En,Fr).bin" BINARY
  TRACK 01 MODE2/2352
    INDEX 01 00:00:00
  TRACK 02 AUDIO
    INDEX 00 01:01:32
    INDEX 01 01:03:32
  TRACK 03 AUDIO
    INDEX 00 03:12:54
    INDEX 01 03:14:54
  TRACK 04 AUDIO
    INDEX 00 05:23:16
    INDEX 01 05:25:16
  TRACK 05 AUDIO
    INDEX 00 07:34:20
    INDEX 01 07:36:20
  TRACK 06 AUDIO
    INDEX 00 09:45:10
    INDEX 01 09:47:10
REM LEADOUT 12:24:41
